# xmcd CD database file
#
# Track frame offsets:
#	150
#	17678
#	32737
#	47941
#	61764
#	91317
#	110165
#	122197
#	150708
#	165832
#	181783
#	207706
#	223406
#	247556
#	263344
#	279039
#	293172
#	307185
#
# Disc length: 4326 seconds
#
# Revision: 0
# Processed by: cddbd v1.5.2PL0 Copyright (c) Steve Scherf et al.
# Submitted via: CDex 1.70beta2
#
DISCID=f810e412
DTITLE=Fernando and Sorocaba - Acústico
DYEAR=1900
DGENRE=Country
TTITLE0=Da cor do pecado
TTITLE1=A casa caiu
TTITLE2=Até o final
TTITLE3=Celebridade
TTITLE4=Que raiva que dá/Aqui a tristeza pula de alegria/O mundo avisou
TTITLE5=Madri
TTITLE6=Chevetão
TTITLE7=Juliana/Força de um furacão/Estrela solitária
TTITLE8=Paga pau
TTITLE9=Delegada
TTITLE10=Luz da minha manhã/Sorry
TTITLE11=A louca
TTITLE12=Vendaval/Bala de prata
TTITLE13=A casa caiu - ao vivo
TTITLE14=Vacilei
TTITLE15=Top do verão
TTITLE16=Te peço de volta
TTITLE17=Me liga
EXTD=
EXTT0=
EXTT1=
EXTT2=
EXTT3=
EXTT4=
EXTT5=
EXTT6=
EXTT7=
EXTT8=
EXTT9=
EXTT10=
EXTT11=
EXTT12=
EXTT13=
EXTT14=
EXTT15=
EXTT16=
EXTT17=
PLAYORDER=
